<svg id="Layer_3" data-name="Layer 3" xmlns="http://www.w3.org/2000/svg" viewBox="0 0 202.35 63.38"><defs><style>.cls-1{fill:#bacfe6;}.cls-2{fill:#729fce;}.cls-3{fill:#336195;}.cls-4{fill:#fff;stroke:#336195;stroke-miterlimit:10;stroke-width:0.75px;}.cls-5{fill:#326295;}</style></defs><path class="cls-1" d="M33.38,67l-8.61-8.61a5.56,5.56,0,0,1,0-7.86l8.61-8.61a5.56,5.56,0,0,1,7.86,0l8.61,8.61a5.56,5.56,0,0,1,0,7.86L41.24,67A5.56,5.56,0,0,1,33.38,67Z" transform="translate(-5.62 -40.31)"/><path class="cls-2" d="M15.86,84.54,7.25,75.93a5.56,5.56,0,0,1,0-7.86l8.61-8.61a5.56,5.56,0,0,1,7.86,0l8.61,8.61a5.56,5.56,0,0,1,0,7.86l-8.61,8.61A5.56,5.56,0,0,1,15.86,84.54Z" transform="translate(-5.62 -40.31)"/><path class="cls-3" d="M33.38,102.06l-8.61-8.61a5.56,5.56,0,0,1,0-7.86L33.38,77a5.56,5.56,0,0,1,7.86,0l8.61,8.61a5.56,5.56,0,0,1,0,7.86l-8.61,8.61A5.56,5.56,0,0,1,33.38,102.06Z" transform="translate(-5.62 -40.31)"/><path class="cls-4" d="M50.9,84.54l-8.61-8.61a5.56,5.56,0,0,1,0-7.86l8.61-8.61a5.56,5.56,0,0,1,7.86,0l8.61,8.61a5.56,5.56,0,0,1,0,7.86l-8.61,8.61A5.56,5.56,0,0,1,50.9,84.54Z" transform="translate(-5.62 -40.31)"/><path class="cls-5" d="M75.66,65.57V47.14H77.4L87.88,62.38H88V47.14h1.66V65.57H88L77.43,50.17h-.11v15.4Z" transform="translate(-5.62 -40.31)"/><path class="cls-5" d="M95.33,65.57V47.14H97V65.57Z" transform="translate(-5.62 -40.31)"/><path class="cls-5" d="M102.75,65.57V47.14h1.71V55.5H115V47.14h1.72V65.57H115V57H104.46v8.54Z" transform="translate(-5.62 -40.31)"/><path class="cls-5" d="M135.25,65.79a21.89,21.89,0,0,1-3.18-.2,5.05,5.05,0,0,1-2.11-.77,3.48,3.48,0,0,1-1.26-1.59,9.23,9.23,0,0,1-.61-2.72c-.1-1.13-.16-2.51-.16-4.15s.06-3,.16-4.12a9.38,9.38,0,0,1,.61-2.72,3.51,3.51,0,0,1,1.26-1.6,5.06,5.06,0,0,1,2.11-.78,20.43,20.43,0,0,1,3.18-.21c.48,0,1,0,1.49,0s1,.06,1.47.12a9.26,9.26,0,0,1,1.25.21v1.42l-1.25-.15-1.31-.09-1.2,0a23.35,23.35,0,0,0-2.76.14,4.2,4.2,0,0,0-1.75.55,2.48,2.48,0,0,0-1,1.27,7.88,7.88,0,0,0-.44,2.3c-.08,1-.11,2.18-.11,3.65s0,2.68.11,3.64a7.88,7.88,0,0,0,.44,2.3,2.5,2.5,0,0,0,1,1.28,4.35,4.35,0,0,0,1.75.55,23.62,23.62,0,0,0,2.76.13c.61,0,1.27,0,2-.08s1.34-.12,1.87-.19v1.48c-.37.07-.81.12-1.31.17l-1.53.11C136.2,65.77,135.71,65.79,135.25,65.79Z" transform="translate(-5.62 -40.31)"/><path class="cls-5" d="M144,65.57V47.14h5.71a27.59,27.59,0,0,1,3.64.2,5.45,5.45,0,0,1,2.25.75,3.28,3.28,0,0,1,1.23,1.58,9,9,0,0,1,.51,2.65c.07,1.08.11,2.43.11,4s0,3-.11,4a9,9,0,0,1-.51,2.65,3.23,3.23,0,0,1-1.23,1.58,5.31,5.31,0,0,1-2.25.75,26,26,0,0,1-3.64.2Zm1.71-1.52h3.54c1.23,0,2.25,0,3.05-.08a5.29,5.29,0,0,0,1.91-.43,2.13,2.13,0,0,0,1-1.18,7.73,7.73,0,0,0,.42-2.28c.06-1,.09-2.21.09-3.72s0-2.76-.09-3.73a7.41,7.41,0,0,0-.43-2.26,2.17,2.17,0,0,0-1-1.18,5,5,0,0,0-1.91-.44c-.79-.06-1.8-.08-3-.08h-3.54Z" transform="translate(-5.62 -40.31)"/><path class="cls-5" d="M162.52,65.57V47.14h11.74v1.53h-10V55.5H173V57h-8.76v7h10v1.52Z" transform="translate(-5.62 -40.31)"/><path class="cls-5" d="M75.67,96.7V78.21h8.39a7,7,0,0,1,2.74.43,3.1,3.1,0,0,1,1.47,1.19,4.26,4.26,0,0,1,.62,1.75A15.34,15.34,0,0,1,89,83.66a12.56,12.56,0,0,1-.18,2.09,4.32,4.32,0,0,1-.79,1.88,3.61,3.61,0,0,1-2,1.19l3.2,7.88H87.39l-3.15-8,.57.27a2.63,2.63,0,0,1-.49.08c-.19,0-.47,0-.83,0h-6.1V96.7Zm1.72-9.11H83.3a7.25,7.25,0,0,0,2.21-.27,2.44,2.44,0,0,0,1.19-.78,2.6,2.6,0,0,0,.5-1.24,11.44,11.44,0,0,0,.11-1.64,13.46,13.46,0,0,0-.1-1.66,2.78,2.78,0,0,0-.44-1.24,2.08,2.08,0,0,0-1.1-.76,6.65,6.65,0,0,0-2.07-.26H77.39Z" transform="translate(-5.62 -40.31)"/><path class="cls-5" d="M99.05,96.91a15.4,15.4,0,0,1-2.69-.2A4.26,4.26,0,0,1,94.62,96a2.86,2.86,0,0,1-1-1.3,7.09,7.09,0,0,1-.46-2c-.08-.8-.12-1.75-.12-2.84a28.32,28.32,0,0,1,.16-3.32,5.19,5.19,0,0,1,.71-2.19,3.16,3.16,0,0,1,1.78-1.21A11.84,11.84,0,0,1,99,82.78a11.55,11.55,0,0,1,2.51.22,3.66,3.66,0,0,1,1.56.73,2.86,2.86,0,0,1,.85,1.33,8.87,8.87,0,0,1,.35,2c0,.78.08,1.71.08,2.76v.57h-9.7A17.62,17.62,0,0,0,94.82,93a3.27,3.27,0,0,0,.59,1.56,2.36,2.36,0,0,0,1.4.78,12.37,12.37,0,0,0,2.56.21c.45,0,.94,0,1.48-.05l1.58-.12c.52,0,1-.1,1.4-.18v1.37c-.36.08-.8.14-1.34.21s-1.1.1-1.69.13S99.62,96.91,99.05,96.91Zm3.73-7.28v-.89a13.15,13.15,0,0,0-.18-2.44,2.87,2.87,0,0,0-.62-1.37,2.13,2.13,0,0,0-1.17-.61,9.66,9.66,0,0,0-1.87-.15,11.4,11.4,0,0,0-2.28.19,2.19,2.19,0,0,0-1.29.71,3,3,0,0,0-.57,1.5,19.5,19.5,0,0,0-.13,2.57h8.62Z" transform="translate(-5.62 -40.31)"/><path class="cls-5" d="M108.7,102.07V83h1.45l.08,2.1h.13a2.94,2.94,0,0,1,1.12-1.49,4,4,0,0,1,1.66-.66,11,11,0,0,1,1.92-.16,8.61,8.61,0,0,1,2.62.32,3,3,0,0,1,1.58,1.1,5.15,5.15,0,0,1,.79,2.15,27.1,27.1,0,0,1,0,7,4.88,4.88,0,0,1-.78,2.17,3,3,0,0,1-1.57,1.1,8.86,8.86,0,0,1-2.59.32,10.33,10.33,0,0,1-2.13-.19,3.91,3.91,0,0,1-1.54-.64,3,3,0,0,1-1-1.24h-.14v7.23Zm5.77-6.64a10.12,10.12,0,0,0,2.21-.19,2,2,0,0,0,1.25-.75,3.71,3.71,0,0,0,.56-1.68,29.48,29.48,0,0,0,0-5.94,3.8,3.8,0,0,0-.56-1.68,2.11,2.11,0,0,0-1.25-.75,10.78,10.78,0,0,0-2.21-.19,6,6,0,0,0-2.46.43,2.4,2.4,0,0,0-1.27,1.43,6.1,6.1,0,0,0-.34,1.65c0,.62-.07,1.31-.07,2.08s0,1.48.07,2.07a6.6,6.6,0,0,0,.26,1.48A2.7,2.7,0,0,0,112,95,5.73,5.73,0,0,0,114.47,95.43Z" transform="translate(-5.62 -40.31)"/><path class="cls-5" d="M129.92,96.91a16,16,0,0,1-2.75-.19,4.22,4.22,0,0,1-1.74-.64,2.65,2.65,0,0,1-.94-1.27,8.22,8.22,0,0,1-.39-2c-.06-.82-.09-1.8-.09-3s0-2.12.09-2.94a8.41,8.41,0,0,1,.39-2,2.57,2.57,0,0,1,.94-1.26,4.22,4.22,0,0,1,1.74-.65,17.27,17.27,0,0,1,2.75-.18,17.5,17.5,0,0,1,2.76.18,4.23,4.23,0,0,1,1.73.65,2.59,2.59,0,0,1,1,1.26,6.84,6.84,0,0,1,.39,2c.06.82.08,1.8.08,2.94s0,2.13-.08,3a6.7,6.7,0,0,1-.39,2,2.66,2.66,0,0,1-1,1.27,4.23,4.23,0,0,1-1.73.64A16.24,16.24,0,0,1,129.92,96.91Zm0-1.42a10.58,10.58,0,0,0,2.49-.22,2,2,0,0,0,1.25-.79,3.6,3.6,0,0,0,.45-1.69c.06-.75.08-1.73.08-3s0-2.17-.08-2.93a3.73,3.73,0,0,0-.45-1.72,1.94,1.94,0,0,0-1.25-.79,15.48,15.48,0,0,0-5,0,1.94,1.94,0,0,0-1.26.79,3.73,3.73,0,0,0-.46,1.72c0,.76-.08,1.73-.08,2.93s0,2.2.08,3a3.59,3.59,0,0,0,.46,1.69,2,2,0,0,0,1.26.79A10.56,10.56,0,0,0,129.92,95.49Z" transform="translate(-5.62 -40.31)"/><path class="cls-5" d="M144.54,96.91c-.48,0-1,0-1.6,0s-1.15-.07-1.72-.12-1.06-.11-1.49-.16v-1.4l1.37.14,1.18.09c.38,0,.76,0,1.13,0l1.24,0a6.57,6.57,0,0,0,2.13-.25,1.44,1.44,0,0,0,.92-.79,3.86,3.86,0,0,0,.22-1.44,4.64,4.64,0,0,0-.17-1.51.93.93,0,0,0-.58-.61,5.55,5.55,0,0,0-1.15-.21l-3.74-.41a4.89,4.89,0,0,1-1.86-.51,1.86,1.86,0,0,1-.89-1.11,6.76,6.76,0,0,1-.23-1.92,5.45,5.45,0,0,1,.35-2.14,2.44,2.44,0,0,1,1-1.18,4.49,4.49,0,0,1,1.67-.51,18.34,18.34,0,0,1,2.22-.12c.44,0,.92,0,1.42,0s1,.06,1.48.12a12.78,12.78,0,0,1,1.29.19v1.39c-.5-.09-1-.15-1.45-.2s-.94-.07-1.43-.09-1,0-1.53,0a12.29,12.29,0,0,0-1.85.12,1.89,1.89,0,0,0-1.2.62,2.61,2.61,0,0,0-.42,1.68A4.52,4.52,0,0,0,141,88a.93.93,0,0,0,.57.62,4.47,4.47,0,0,0,1.17.24l3.76.38a5.11,5.11,0,0,1,1.78.42,1.8,1.8,0,0,1,.92,1.07,7,7,0,0,1,.28,2.3,5.58,5.58,0,0,1-.3,2,2.41,2.41,0,0,1-.91,1.18,3.94,3.94,0,0,1-1.56.58A12.86,12.86,0,0,1,144.54,96.91Z" transform="translate(-5.62 -40.31)"/><path class="cls-5" d="M153.49,78.8V76.73h1.82V78.8Zm.08,17.9V83h1.64V96.7Z" transform="translate(-5.62 -40.31)"/><path class="cls-5" d="M161.28,96.7V84.42h-2.82V83h2.82V79h1.64v4h3.33v1.43h-3.33V96.7Z" transform="translate(-5.62 -40.31)"/><path class="cls-5" d="M174.61,96.91a16.24,16.24,0,0,1-2.76-.19,4.23,4.23,0,0,1-1.73-.64,2.65,2.65,0,0,1-.94-1.27,7.38,7.38,0,0,1-.39-2c-.06-.82-.09-1.8-.09-3s0-2.12.09-2.94a7.54,7.54,0,0,1,.39-2,2.57,2.57,0,0,1,.94-1.26,4.23,4.23,0,0,1,1.73-.65,21.17,21.17,0,0,1,5.51,0,4.17,4.17,0,0,1,1.73.65,2.67,2.67,0,0,1,1,1.26,7.54,7.54,0,0,1,.39,2c.05.82.08,1.8.08,2.94s0,2.13-.08,3a7.38,7.38,0,0,1-.39,2,2.75,2.75,0,0,1-1,1.27,4.17,4.17,0,0,1-1.73.64A16.11,16.11,0,0,1,174.61,96.91Zm0-1.42a10.54,10.54,0,0,0,2.48-.22,2,2,0,0,0,1.25-.79,3.71,3.71,0,0,0,.46-1.69c0-.75.08-1.73.08-3s0-2.17-.08-2.93a3.85,3.85,0,0,0-.46-1.72,1.94,1.94,0,0,0-1.25-.79,12,12,0,0,0-2.48-.2,12.2,12.2,0,0,0-2.48.2,1.94,1.94,0,0,0-1.26.79,3.73,3.73,0,0,0-.45,1.72c-.06.76-.09,1.73-.09,2.93s0,2.2.09,3a3.6,3.6,0,0,0,.45,1.69,2,2,0,0,0,1.26.79A10.71,10.71,0,0,0,174.61,95.49Z" transform="translate(-5.62 -40.31)"/><path class="cls-5" d="M184.84,96.7V83h1.43l.11,2.77h.13a4,4,0,0,1,1-1.87,3.53,3.53,0,0,1,1.6-.89,8.8,8.8,0,0,1,2.06-.22v1.64a5.58,5.58,0,0,0-2.92.63A3.23,3.23,0,0,0,186.86,87a11.51,11.51,0,0,0-.38,3.17V96.7Z" transform="translate(-5.62 -40.31)"/><path class="cls-5" d="M199.51,102.23l-1.62,0c-.57,0-1.1,0-1.61-.08l-1.36-.1v-1.37l1.58.09c.51,0,1,0,1.44.05l1.25,0a9.59,9.59,0,0,0,2.61-.29,2.52,2.52,0,0,0,1.42-.91,3.51,3.51,0,0,0,.59-1.64,18.53,18.53,0,0,0,.14-2.43v-.78h-.14a3,3,0,0,1-.69,1,3.59,3.59,0,0,1-1.42.78,8.24,8.24,0,0,1-2.48.3,8.55,8.55,0,0,1-2.51-.3,2.91,2.91,0,0,1-1.47-.94,3.54,3.54,0,0,1-.68-1.65,13.86,13.86,0,0,1-.18-2.41V83H196v8.06a15.42,15.42,0,0,0,.14,2.31,2.48,2.48,0,0,0,.53,1.31,2.11,2.11,0,0,0,1.16.59,10.33,10.33,0,0,0,2,.15,5.73,5.73,0,0,0,2.35-.39,2.47,2.47,0,0,0,1.22-1.11,4.41,4.41,0,0,0,.47-1.69,20.37,20.37,0,0,0,.1-2.16V83h1.64V95a21.69,21.69,0,0,1-.23,3.4,5.25,5.25,0,0,1-.85,2.24,3.44,3.44,0,0,1-1.82,1.25A10.66,10.66,0,0,1,199.51,102.23Z" transform="translate(-5.62 -40.31)"/><rect class="cls-5" x="66.43" y="30.31" width="135.93" height="2.38" rx="1.19"/></svg>