<?xml version="1.0" encoding="utf-8"?>
<!-- Generator: Adobe Illustrator 25.4.5, SVG Export Plug-In . SVG Version: 6.00 Build 0)  -->
<svg version="1.1" id="Layer_1" xmlns="http://www.w3.org/2000/svg" xmlns:xlink="http://www.w3.org/1999/xlink" x="0px" y="0px"
	 viewBox="0 0 35.9 39.9" style="enable-background:new 0 0 35.9 39.9;" xml:space="preserve">
<style type="text/css">
	.st0{fill:#FFD36B;stroke:#CA902B;}
</style>
<path id="Union_18" class="st0" d="M17.9,24.8l-4.7,12.7c0,0.1-0.2,0.2-0.3,0.1c-0.1,0-0.1-0.1-0.1-0.1L10,32.2
	c-0.1-0.1-0.2-0.1-0.3,0l-5.3,2.3c-0.1,0-0.2,0-0.3-0.1c0-0.1,0-0.1,0-0.2l5-13.5c-1.9-2.1-2.9-4.8-2.9-7.6
	C6.3,6.7,11.5,1.6,17.9,1.7c6.4-0.1,11.6,5.1,11.7,11.5c0,0,0,0,0,0c0,2.8-1,5.5-2.9,7.5l5,13.5c0,0.1,0,0.2-0.1,0.3
	c-0.1,0-0.1,0-0.2,0L26,32.1c-0.1,0-0.2,0-0.3,0.1l-2.5,5.2c0,0.1-0.2,0.2-0.3,0.1c-0.1,0-0.1-0.1-0.1-0.1L18,24.8H17.9z"/>
</svg>
