<svg xmlns="http://www.w3.org/2000/svg" viewBox="0 0 199.95 63.3"><defs><style>.cls-1{fill:#fff;}.cls-2{fill:#729fce;}.cls-3{fill:#bacfe6;}</style></defs><g id="Layer_2" data-name="Layer 2"><g id="Layer_1-2" data-name="Layer 1"><path class="cls-1" d="M70,25.28V6.85h1.74L82.22,22.09h.12V6.85H84V25.28H82.34L71.77,9.88h-.11v15.4Z"/><path class="cls-1" d="M89.67,25.28V6.85h1.67V25.28Z"/><path class="cls-1" d="M97.09,25.28V6.85H98.8v8.36h10.54V6.85h1.72V25.28h-1.72V16.71H98.8v8.54Z"/><path class="cls-1" d="M129.59,25.5a22.63,22.63,0,0,1-3.18-.2,5.17,5.17,0,0,1-2.11-.77A3.51,3.51,0,0,1,123,22.94a9.42,9.42,0,0,1-.61-2.72c-.1-1.13-.16-2.51-.16-4.15s.06-3,.16-4.12A9.34,9.34,0,0,1,123,9.23a3.43,3.43,0,0,1,1.26-1.6,5,5,0,0,1,2.11-.78,18.81,18.81,0,0,1,3.18-.21h1.49a11.81,11.81,0,0,1,1.47.12A8.82,8.82,0,0,1,133.8,7V8.39l-1.25-.15-1.31-.09H130a23.19,23.19,0,0,0-2.76.14,4.22,4.22,0,0,0-1.75.55,2.47,2.47,0,0,0-1,1.27,7.81,7.81,0,0,0-.44,2.3c-.08,1-.11,2.18-.11,3.65a34.9,34.9,0,0,0,.11,3.64,7.87,7.87,0,0,0,.44,2.3,2.58,2.58,0,0,0,1,1.28,4.53,4.53,0,0,0,1.75.55A25.5,25.5,0,0,0,130,24a17.75,17.75,0,0,0,2-.08c.73-.08,1.34-.12,1.87-.19v1.48c-.37.07-.81.12-1.31.17l-1.53.11C130.54,25.48,130.05,25.5,129.59,25.5Z"/><path class="cls-1" d="M138.34,25.28V6.85h5.71a26,26,0,0,1,3.64.2,5.27,5.27,0,0,1,2.25.75,3.16,3.16,0,0,1,1.23,1.58,8.83,8.83,0,0,1,.51,2.65c.07,1.08.11,2.43.11,4s0,3-.11,4a9,9,0,0,1-.51,2.65,3.25,3.25,0,0,1-1.23,1.58,5.41,5.41,0,0,1-2.25.75,26,26,0,0,1-3.64.2Zm1.71-1.52h3.54c1.23,0,2.25,0,3-.08a5.42,5.42,0,0,0,1.91-.43,2.15,2.15,0,0,0,1-1.18,7.46,7.46,0,0,0,.42-2.28c.06-1,.09-2.21.09-3.72s0-2.76-.09-3.73a7.24,7.24,0,0,0-.43-2.26,2.12,2.12,0,0,0-1-1.18,5,5,0,0,0-1.91-.44c-.79-.06-1.8-.08-3-.08h-3.54Z"/><path class="cls-1" d="M156.86,25.28V6.85H168.6V8.38h-10v6.83h8.74v1.5h-8.76v7h10v1.52Z"/><path class="cls-1" d="M70,56.41V37.92H78.4a6.91,6.91,0,0,1,2.74.43,3.07,3.07,0,0,1,1.47,1.19,4.23,4.23,0,0,1,.62,1.75,14.42,14.42,0,0,1,.11,2.08,12.2,12.2,0,0,1-.18,2.09,4.35,4.35,0,0,1-.79,1.88,3.69,3.69,0,0,1-2,1.19l3.2,7.88H81.73l-3.15-8,.57.27a2.64,2.64,0,0,1-.49.08H71.73v7.65Zm1.72-9.11h5.91A7.48,7.48,0,0,0,79.85,47,2.46,2.46,0,0,0,81,46.25a2.59,2.59,0,0,0,.5-1.24,11.3,11.3,0,0,0,.11-1.64,13.09,13.09,0,0,0-.1-1.66,2.61,2.61,0,0,0-.44-1.24,2,2,0,0,0-1.1-.76,6.3,6.3,0,0,0-2.07-.26H71.73Z"/><path class="cls-1" d="M93.39,56.62a16.16,16.16,0,0,1-2.69-.2A4.42,4.42,0,0,1,89,55.71a2.91,2.91,0,0,1-1-1.3,7.27,7.27,0,0,1-.46-2c-.08-.8-.12-1.75-.12-2.84a28.28,28.28,0,0,1,.16-3.32,5.1,5.1,0,0,1,.71-2.19A3.19,3.19,0,0,1,90,42.85a11.56,11.56,0,0,1,3.31-.36,11.11,11.11,0,0,1,2.51.22,3.51,3.51,0,0,1,1.56.73,2.8,2.8,0,0,1,.85,1.33,9,9,0,0,1,.35,2c0,.78.08,1.71.08,2.76v.57H89a17.6,17.6,0,0,0,.17,2.61,3.27,3.27,0,0,0,.59,1.56,2.4,2.4,0,0,0,1.4.78,12.24,12.24,0,0,0,2.56.21c.45,0,.94,0,1.48,0l1.58-.12a7,7,0,0,0,1.4-.18v1.37c-.36.08-.8.14-1.34.21s-1.1.1-1.69.13S94,56.62,93.39,56.62Zm3.73-7.28v-.89A12.42,12.42,0,0,0,96.94,46a2.77,2.77,0,0,0-.62-1.37A2,2,0,0,0,95.15,44a9.76,9.76,0,0,0-1.87-.15,10.92,10.92,0,0,0-2.28.19,2.19,2.19,0,0,0-1.29.71,3,3,0,0,0-.57,1.5A20,20,0,0,0,89,48.85h8.62Z"/><path class="cls-1" d="M103,61.78V42.71h1.45l.08,2.1h.13a2.93,2.93,0,0,1,1.12-1.49,3.92,3.92,0,0,1,1.66-.66,10.37,10.37,0,0,1,1.92-.16,8.56,8.56,0,0,1,2.62.32,3,3,0,0,1,1.58,1.1,5.18,5.18,0,0,1,.79,2.15,27.33,27.33,0,0,1,0,7,4.86,4.86,0,0,1-.78,2.17,3,3,0,0,1-1.57,1.1,9,9,0,0,1-2.59.32,10.89,10.89,0,0,1-2.13-.19,3.94,3.94,0,0,1-1.54-.64,3.1,3.1,0,0,1-1-1.24h-.14v7.23Zm5.77-6.64A10.94,10.94,0,0,0,111,55a2,2,0,0,0,1.25-.75,3.77,3.77,0,0,0,.56-1.68,29.48,29.48,0,0,0,0-5.94,3.73,3.73,0,0,0-.56-1.68,2.09,2.09,0,0,0-1.25-.75,10.26,10.26,0,0,0-2.21-.19,5.92,5.92,0,0,0-2.46.43,2.4,2.4,0,0,0-1.27,1.43,6.13,6.13,0,0,0-.34,1.65c0,.62-.07,1.31-.07,2.08a18.74,18.74,0,0,0,.07,2.07A6.75,6.75,0,0,0,105,53.1a2.74,2.74,0,0,0,1.34,1.61A5.81,5.81,0,0,0,108.81,55.14Z"/><path class="cls-1" d="M124.26,56.62a16.88,16.88,0,0,1-2.75-.19,4.22,4.22,0,0,1-1.74-.64,2.71,2.71,0,0,1-.94-1.27,8.53,8.53,0,0,1-.39-2c-.06-.82-.09-1.8-.09-3a28.15,28.15,0,0,1,.09-2.94,8.53,8.53,0,0,1,.39-2,2.57,2.57,0,0,1,.94-1.26,4.1,4.1,0,0,1,1.74-.65,21.17,21.17,0,0,1,5.51,0,4.14,4.14,0,0,1,1.73.65,2.54,2.54,0,0,1,1,1.26,6.76,6.76,0,0,1,.39,2c.06.82.08,1.8.08,2.94s0,2.13-.08,3a6.89,6.89,0,0,1-.39,2,2.66,2.66,0,0,1-1,1.27,4.41,4.41,0,0,1-1.73.64A16.92,16.92,0,0,1,124.26,56.62Zm0-1.42a10.94,10.94,0,0,0,2.49-.22,2,2,0,0,0,1.25-.79,3.59,3.59,0,0,0,.45-1.69c.06-.75.08-1.73.08-3s0-2.17-.08-2.93a3.7,3.7,0,0,0-.45-1.72,1.88,1.88,0,0,0-1.25-.79,15.53,15.53,0,0,0-5,0,1.92,1.92,0,0,0-1.26.79,3.65,3.65,0,0,0-.46,1.72c0,.76-.08,1.73-.08,2.93s0,2.2.08,3a3.6,3.6,0,0,0,.46,1.69,2,2,0,0,0,1.26.79A11.16,11.16,0,0,0,124.26,55.2Z"/><path class="cls-1" d="M138.88,56.62h-1.6c-.6,0-1.15-.07-1.72-.12s-1.06-.11-1.49-.16v-1.4l1.37.14,1.18.09H139a6.65,6.65,0,0,0,2.13-.25,1.45,1.45,0,0,0,.92-.79,3.71,3.71,0,0,0,.22-1.44,4.53,4.53,0,0,0-.17-1.51.91.91,0,0,0-.58-.61,5.55,5.55,0,0,0-1.15-.21L136.62,50a5,5,0,0,1-1.86-.51,1.89,1.89,0,0,1-.89-1.11,7,7,0,0,1-.23-1.92,5.38,5.38,0,0,1,.35-2.14,2.46,2.46,0,0,1,1-1.18,4.5,4.5,0,0,1,1.67-.51,16.52,16.52,0,0,1,2.22-.12h1.42a12,12,0,0,1,1.48.12,11.14,11.14,0,0,1,1.29.19v1.39c-.5-.09-1-.15-1.45-.2s-.94-.07-1.43-.09-1,0-1.53,0a11.43,11.43,0,0,0-1.85.12,1.88,1.88,0,0,0-1.2.62,2.62,2.62,0,0,0-.42,1.68,4.87,4.87,0,0,0,.15,1.42,1,1,0,0,0,.57.62,4.68,4.68,0,0,0,1.17.24l3.76.38a4.93,4.93,0,0,1,1.78.42,1.78,1.78,0,0,1,.92,1.07,6.86,6.86,0,0,1,.28,2.3,5.68,5.68,0,0,1-.3,2,2.42,2.42,0,0,1-.91,1.18,3.93,3.93,0,0,1-1.56.58A13.1,13.1,0,0,1,138.88,56.62Z"/><path class="cls-1" d="M147.83,38.51V36.44h1.82v2.07Zm.08,17.9V42.71h1.64v13.7Z"/><path class="cls-1" d="M155.62,56.41V44.13H152.8V42.71h2.82v-4h1.64v4h3.33v1.43h-3.33V56.41Z"/><path class="cls-1" d="M169,56.62a17,17,0,0,1-2.76-.19,4.47,4.47,0,0,1-1.73-.64,2.71,2.71,0,0,1-.94-1.27,7.62,7.62,0,0,1-.39-2c-.06-.82-.09-1.8-.09-3a28.15,28.15,0,0,1,.09-2.94,7.54,7.54,0,0,1,.39-2,2.57,2.57,0,0,1,.94-1.26,4.14,4.14,0,0,1,1.73-.65,21.17,21.17,0,0,1,5.51,0,4,4,0,0,1,1.73.65,2.54,2.54,0,0,1,1,1.26,7.54,7.54,0,0,1,.39,2c.05.82.08,1.8.08,2.94s0,2.13-.08,3a7.62,7.62,0,0,1-.39,2,2.83,2.83,0,0,1-1,1.27,4.12,4.12,0,0,1-1.73.64A16.88,16.88,0,0,1,169,56.62Zm0-1.42a10.85,10.85,0,0,0,2.48-.22,2,2,0,0,0,1.25-.79,3.6,3.6,0,0,0,.46-1.69c0-.75.08-1.73.08-3s0-2.17-.08-2.93a3.84,3.84,0,0,0-.46-1.72,1.88,1.88,0,0,0-1.25-.79,11.48,11.48,0,0,0-2.48-.2,12.15,12.15,0,0,0-2.48.2,1.92,1.92,0,0,0-1.26.79,3.83,3.83,0,0,0-.45,1.72c-.06.76-.09,1.73-.09,2.93a29.18,29.18,0,0,0,.09,3,3.71,3.71,0,0,0,.45,1.69,2,2,0,0,0,1.26.79A10.9,10.9,0,0,0,169,55.2Z"/><path class="cls-1" d="M179.18,56.41V42.71h1.43l.11,2.77h.13a4.06,4.06,0,0,1,1-1.87,3.48,3.48,0,0,1,1.6-.89,8.44,8.44,0,0,1,2.06-.22v1.64a5.6,5.6,0,0,0-2.92.63,3.24,3.24,0,0,0-1.39,1.94,11.66,11.66,0,0,0-.38,3.17v6.53Z"/><path class="cls-1" d="M193.85,61.94h-1.62a10.46,10.46,0,0,1-1.61-.08l-1.36-.1V60.39l1.58.09a13.2,13.2,0,0,1,1.44.05h1.25a10,10,0,0,0,2.61-.29,2.52,2.52,0,0,0,1.42-.91,3.5,3.5,0,0,0,.59-1.64,18,18,0,0,0,.14-2.43v-.78h-.14a3.09,3.09,0,0,1-.69,1,3.66,3.66,0,0,1-1.42.78,8.6,8.6,0,0,1-2.48.3,8.85,8.85,0,0,1-2.51-.3,3,3,0,0,1-1.47-.94,3.59,3.59,0,0,1-.68-1.65,14,14,0,0,1-.18-2.41V42.71h1.62v8.06a16.28,16.28,0,0,0,.14,2.31,2.52,2.52,0,0,0,.53,1.31,2.15,2.15,0,0,0,1.16.59,11.16,11.16,0,0,0,2,.15,5.9,5.9,0,0,0,2.35-.39,2.49,2.49,0,0,0,1.22-1.11,4.36,4.36,0,0,0,.47-1.69,19.52,19.52,0,0,0,.1-2.16V42.71H200v12a21.59,21.59,0,0,1-.23,3.4,5.32,5.32,0,0,1-.85,2.24,3.48,3.48,0,0,1-1.82,1.25A10.77,10.77,0,0,1,193.85,61.94Z"/><rect class="cls-1" x="70" y="30.95" width="129.95" height="1.52"/><path class="cls-1" d="M49.1,19.05a3.71,3.71,0,0,1,2.61,1.08l8.91,8.92a3.69,3.69,0,0,1,0,5.22l-8.91,8.91a3.69,3.69,0,0,1-5.22,0l-8.92-8.91a3.69,3.69,0,0,1,0-5.22l8.92-8.92a3.69,3.69,0,0,1,2.61-1.08m0-1.6A5.27,5.27,0,0,0,45.36,19l-8.92,8.92a5.3,5.3,0,0,0,0,7.48l8.92,8.91a5.29,5.29,0,0,0,7.48,0l8.91-8.91a5.28,5.28,0,0,0,0-7.48L52.84,19a5.29,5.29,0,0,0-3.74-1.55Z"/><rect class="cls-1" x="20.06" y="37.5" width="23.19" height="23.19" rx="5.29" transform="translate(88.76 61.43) rotate(135)"/><rect class="cls-2" x="20.05" y="2.61" width="23.19" height="23.19" rx="5.29" transform="translate(64.07 1.87) rotate(135)"/><rect class="cls-3" x="2.61" y="20.05" width="23.19" height="23.19" rx="5.29" transform="translate(46.63 43.98) rotate(135)"/></g></g></svg>